<?xml version="1.0" encoding="UTF-8"?>
<!DOCTYPE svg PUBLIC "-//W3C//DTD SVG 1.1//EN" "http://www.w3.org/Graphics/SVG/1.1/DTD/svg11.dtd">
<!-- Creator: CorelDRAW 2020 (64-Bit) -->
<svg xmlns="http://www.w3.org/2000/svg" xml:space="preserve" width="29.5561mm" height="23.7685mm" version="1.1" style="shape-rendering:geometricPrecision; text-rendering:geometricPrecision; image-rendering:optimizeQuality; fill-rule:evenodd; clip-rule:evenodd"
viewBox="0 0 430.13 345.91"
 xmlns:xlink="http://www.w3.org/1999/xlink"
 xmlns:xodm="http://www.corel.com/coreldraw/odm/2003">
 <defs>
  <style type="text/css">
   <![CDATA[
    .fil0 {fill:#0AA637}
   ]]>
  </style>
 </defs>
 <g id="Слой_x0020_1">
  <metadata id="CorelCorpID_0Corel-Layer"/>
  <path class="fil0" d="M430.13 0c-5.02,212.85 -131.38,445.39 -412.45,301.21 46.49,-13.58 77.63,-131.57 157.14,-135.59 28.79,-1.46 70.22,9.85 71.78,43.27 1.29,27.69 -19.93,48.5 -38.22,48.04 -19.59,-0.49 -42.93,-27.26 -9.95,-47.54 -29.09,-33.77 -72.77,8.31 -56.48,50.68 10.59,27.55 49.23,56.37 101.8,29.27 31.96,-16.48 56.13,-61.23 31.98,-106.66 35.78,-16.33 55.53,-33.37 54.54,-60.07 -23.75,15.74 -39.91,23.25 -60.08,23.36 -41.93,0.23 -69.52,-32.09 -131.4,-5.96 -71.21,30.07 -100.36,148.86 -138.78,153.92 35.31,-49.97 30.7,-141.41 105.91,-193.98 81.23,-56.77 229.87,1.34 324.22,-99.94z"/>
 </g>
</svg>
